# xmcd
#
# Track frame offsets:
#	150
#	10069
#	25352
#	39097
#	52241
#	65650
#	77122
#	87542
#	101975
#	112576
#	123937
#	137931
#
# Disc length: 1966 seconds
#
# Revision: 0
# Processed by: cddbd v1.5.2PL0 Copyright (c) Steve Scherf et al.
# Submitted via: EasyCDDAExtractor 16.0.6.1
#
DISCID=9f07ac0c
DTITLE=Περγιάλης Νίκος - Τα παράνομα-Ν. Περγιάλης
DYEAR=1985
DGENRE=Ρεμπέτικη
TTITLE0=Περγιάλης Νίκος - Χίλιες δυό φορές [Ν. Περγιάλη]
TTITLE1=Περγιάλης Νίκος - Μάθατε τι έχει γίνει [διασκ. Ν. Περγιάλη]
TTITLE2=Περγιάλης Νίκος-Λεπενιώτη Αγάθη - Γλυκά το νάνι νάνι [Μάρκου Βαμβακάρη
TTITLE2=]
TTITLE3=Περγιάλης Νίκος - Η αδέκαρη [διασκ. Ν. Περγιάλη]
TTITLE4=Περγιάλης Νίκος-Λεπενιώτη Αγάθη - Το κορόϊδο [Μάρκου Βαμβακάρη]
TTITLE5=Περγιάλης Νίκος-Λεπενιώτη Αγάθη - Ο φουκαράς [Μάρκου Βαμβακάρη]
TTITLE6=Περγιάλης Νίκος - Έμεινα μόνος κομμάτια δυό [Ν. Περγιάλη]
TTITLE7=Περγιάλης Νίκος-Λεπενιώτη Αγάθη - Πάλι θα τα ξαναπούμε [Ν. Περγιάλη]
TTITLE8=Περγιάλης Νίκος-Λεπενιώτη Αγάθη - Ντερμπεντέρισσα κυρά [Ν. Περγιάλη]
TTITLE9=Περγιάλης Νίκος-Λεπενιώτη Αγάθη - Είμαι μάγκας και ρεμπέτης [Ν. Περγιά
TTITLE9=λη]
TTITLE10=Περγιάλης Νίκος - Στον καφενέ του Μανωλά [Ν. Περγιάλη]
TTITLE11=Περγιάλης Νίκος - Ήμουν μάγκας μιά φορά [Μάρκου Βαμβακάρη]
EXTD=
EXTT0=
EXTT1=
EXTT2=
EXTT3=
EXTT4=
EXTT5=
EXTT6=
EXTT7=
EXTT8=
EXTT9=
EXTT10=
EXTT11=
PLAYORDER=
